PathFileType	3	(X/Y/Z)	E:\ViconData\BIOM9541 2025\Week 7\Wed1100\Hanif deep squat 5 Squat 01.trc
DataRate	CameraRate	NumFrames	NumMarkers	Units	OrigDataRate	OrigDataStartFrame	OrigNumFrames
200.0	200.0	20	19	mm	200.0	425	1698	
Frame#	Time	C7			CLAV			RBAK			LASI			RASI			LPSI			RPSI			LTHI			LKNE			LTIB			LANK			LHEE			LTOE			RTHI			RKNE			RTIB			RANK			RHEE			RTOE			
		X1	Y1	Z1	X2	Y2	Z2	X3	Y3	Z3	X4	Y4	Z4	X5	Y5	Z5	X6	Y6	Z6	X7	Y7	Z7	X8	Y8	Z8	X9	Y9	Z9	X10	Y10	Z10	X11	Y11	Z11	X12	Y12	Z12	X13	Y13	Z13	X14	Y14	Z14	X15	Y15	Z15	X16	Y16	Z16	X17	Y17	Z17	X18	Y18	Z18	X19	Y19	Z19	
425	2.12	308.39044	1180.5439	-1217.3906	169.08879	1095.0847	-1207.7271	330.61191	1101.2402	-1364.6926	275.91354	742.03961	-1079.9755	263.6426	753.3709	-1342.6263	437.5371	809.5142	-1169.1521	436.1053	805.1307	-1242.8413	214.69191	521.84595	-927.76166	150.92752	394.38525	-901.13586	235.13383	202.01552	-923.73914	298.27921	63.406601	-974.47522	318.74091	52.410484	-1036.473	159.9395	38.668411	-942.4494	295.4798	651.7085	-1424.5665	153.82799	386.59119	-1500.0107	182.53629	304.82217	-1502.3042	292.57266	71.697853	-1432.1205	315.88327	50.808846	-1362.4802	163.02536	40.339157	-1468.8475	
426	2.125	308.58691	1184.8014	-1217.2982	169.07787	1099.6508	-1207.7751	330.71552	1105.4307	-1364.6271	274.80298	746.32104	-1079.9702	262.6666	757.3893	-1342.6571	436.593	813.52	-1169.4529	435.1464	809.184	-1242.9017	214.91986	523.11774	-928.73175	152.3358	395.37265	-902.46698	236.0209	202.53842	-924.31604	298.38361	63.44273	-974.37616	318.88504	52.331566	-1036.3977	159.90331	38.65398	-942.44238	294.75711	654.3512	-1424.4387	155.46623	387.58276	-1498.8582	183.98729	305.6055	-1501.4498	292.72348	71.629128	-1432.1566	316.00577	50.673351	-1362.8162	163.00639	40.237873	-1468.8269	
427	2.13	308.82443	1189.0176	-1217.391	169.15007	1104.3102	-1207.8734	330.87183	1109.5938	-1364.6031	273.74597	750.48798	-1080.0444	261.6549	761.3693	-1342.6229	435.5822	817.5815	-1169.4624	434.1669	813.2615	-1242.9647	215.41591	525.18683	-929.28455	153.81018	396.35944	-903.65277	236.79749	203.0464	-924.77319	298.51886	63.35762	-974.39124	318.96835	52.276264	-1036.3234	159.88397	38.603428	-942.4176	293.93143	656.99634	-1424.2816	157.05438	388.55615	-1497.6647	185.42067	306.47162	-1500.4503	292.819	71.64447	-1432.1737	316.17117	50.526463	-1363.1185	162.95473	40.229382	-1468.8875	
428	2.135	309.064	1193.2114	-1217.4033	168.70447	1109.1088	-1207.4099	331.01865	1113.7295	-1364.6082	272.6301	754.62128	-1079.9971	260.6716	765.3356	-1342.6598	434.5805	821.6119	-1169.3313	433.1232	817.2374	-1242.9984	215.75296	526.83264	-929.97968	155.31665	397.31094	-904.89124	237.71065	203.54181	-925.33429	298.93286	63.559689	-974.26013	318.96188	52.171204	-1036.1145	159.89218	38.579788	-942.39703	293.13287	660.00867	-1424.5343	158.70111	389.66092	-1496.5189	186.91663	307.33215	-1499.519	292.94281	71.747643	-1432.1908	316.26965	50.47802	-1363.2245	162.90227	40.29623	-1468.9608	
429	2.14	309.27692	1197.3826	-1217.3669	169.23895	1113.4	-1208.0347	331.09296	1117.7971	-1364.583	271.55954	758.63989	-1080.0621	259.6502	769.3138	-1342.7148	433.5389	825.6354	-1169.078	432.0912	820.9907	-1243.1298	216.15605	528.45172	-930.77722	156.84947	398.21417	-906.32825	238.57426	203.98604	-925.87933	298.71939	63.377239	-974.17133	319.16559	52.256798	-1036.0984	159.88191	38.562061	-942.37134	292.3371	662.73877	-1424.3435	160.38531	390.71674	-1495.3134	188.46645	308.24255	-1498.5836	293.047	71.899567	-1432.1837	316.32864	50.480511	-1363.2267	162.89255	40.356895	-1468.9795	
430	2.145	309.40366	1201.4241	-1217.3469	168.79297	1118.2424	-1207.4425	331.20984	1121.8741	-1364.4496	270.3688	762.73053	-1080.0426	258.6452	773.2047	-1342.6838	432.4973	829.6615	-1169.1205	431.0649	824.9164	-1243.1742	216.33403	529.91504	-931.47296	158.41489	399.14508	-907.59265	239.47025	204.54938	-926.38605	298.87082	63.409985	-974.1275	319.28586	52.235367	-1035.9995	159.87837	38.539497	-942.34631	291.60376	665.31213	-1424.2037	162.14684	391.73459	-1494.1439	189.97256	309.08569	-1497.5525	293.22998	71.920738	-1432.175	316.4657	50.46151	-1363.4934	162.85178	40.388943	-1469.0128	
431	2.15	309.57141	1205.4838	-1217.3469	169.2662	1122.2573	-1207.9644	331.37524	1125.9877	-1364.4717	269.35168	766.76141	-1080.3115	257.5321	777.1051	-1342.7548	431.5002	833.5533	-1169.6027	430.1091	828.9974	-1243.2262	216.81174	531.52808	-932.36658	159.97391	400.18384	-908.86212	240.32529	205.02312	-926.93732	299.00775	63.440262	-974.08704	319.39355	52.057693	-1035.9004	159.85518	38.565567	-942.38531	290.90076	667.56744	-1423.7188	163.9241	392.63342	-1492.9448	191.57162	309.86484	-1496.6595	293.388	71.861176	-1432.1855	316.64825	50.368385	-1363.8368	162.84201	40.295826	-1469.0159	
432	2.155	309.72443	1209.5205	-1217.3114	169.26367	1126.5709	-1207.976	331.46301	1129.9392	-1364.469	268.16776	770.80267	-1080.335	256.4661	780.8198	-1342.7227	430.4415	837.3756	-1169.7993	429.1644	832.9325	-1243.3657	217.05302	532.72632	-933.41125	161.59819	401.13513	-910.33417	241.22887	205.60414	-927.44397	299.1875	63.454838	-974.12964	319.48489	51.920765	-1035.8185	159.8166	38.593876	-942.40356	290.17279	670.00964	-1423.5585	165.69882	393.58429	-1491.7491	193.22359	310.62283	-1495.7371	293.56403	71.749985	-1432.1898	316.77405	50.251724	-1364.1057	162.7981	40.228165	-1469.04	
433	2.16	309.82062	1213.535	-1217.2401	168.77591	1131.2708	-1207.3376	331.50101	1133.9114	-1364.3585	266.98572	774.75854	-1080.3077	255.3225	784.6238	-1342.7083	429.3525	841.2067	-1169.8423	428.042	836.798	-1243.353	217.45782	534.27136	-934.27246	163.19998	402.03171	-911.67413	242.10269	206.07664	-928.00812	299.26666	63.435734	-974.05072	319.55011	51.907173	-1035.7279	159.80229	38.624683	-942.41327	289.35172	672.8988	-1423.6764	167.47417	394.55972	-1490.5751	194.79475	311.44153	-1494.7101	293.67044	71.777992	-1432.2068	316.88928	50.146816	-1364.3519	162.74226	40.2785	-1469.0685	
434	2.165	309.90109	1217.502	-1217.2346	168.85269	1135.5507	-1207.4352	331.52286	1137.886	-1364.2872	265.74728	778.58276	-1080.2944	254.2406	788.3928	-1342.7406	428.2296	845.0543	-1169.8148	426.5016	840.6807	-1242.7285	217.99034	536.177	-934.82355	164.83154	402.92523	-913.06403	243.01698	206.53325	-928.57971	299.3591	63.449249	-973.96539	319.66028	51.920704	-1035.6315	159.82841	38.568134	-942.39832	288.65308	675.12622	-1423.1622	169.32959	395.60864	-1489.4116	196.43483	312.34644	-1493.7739	293.81323	71.850899	-1432.1854	316.92538	50.165146	-1364.3226	162.6888	40.340206	-1469.0854	
435	2.17	309.95117	1221.3905	-1217.1534	169.26941	1139.2911	-1207.7595	331.48795	1141.7064	-1364.2881	264.66443	782.40027	-1080.4559	253.1721	792.0836	-1342.7029	427.113	848.8656	-1169.592	425.7819	844.1246	-1243.2714	218.41397	537.43359	-935.89813	166.49059	403.72998	-914.61304	243.91119	206.86552	-929.21582	299.50409	63.454746	-973.90057	319.79874	51.95153	-1035.5392	159.8284	38.552372	-942.38226	287.93048	677.88312	-1423.2805	171.2149	396.61832	-1488.2295	198.19867	313.16681	-1492.8655	293.92429	71.972214	-1432.1577	316.9689	50.082417	-1364.3	162.68552	40.37294	-1469.1056	
436	2.175	310.01202	1225.1868	-1217.0784	168.75697	1143.6375	-1207.3572	331.45612	1145.4363	-1364.1727	263.50439	786.18005	-1080.5049	252.0667	795.707	-1342.7183	425.9973	852.5787	-1169.4615	424.6005	847.9188	-1243.1241	218.76935	538.59546	-936.98395	168.12453	404.61005	-915.98511	244.79945	207.41522	-929.80011	299.6528	63.402264	-973.87433	319.94116	51.885361	-1035.4496	159.84657	38.529305	-942.4248	287.27542	679.98956	-1422.7212	173.17145	397.62314	-1487.0938	199.9548	313.90616	-1491.8993	294.10913	72.006668	-1432.1333	317.04715	50.062508	-1364.3385	162.68318	40.349216	-1469.1233	
437	2.18	310.08887	1228.953	-1217.0261	169.1974	1147.298	-1208.0416	331.42365	1149.139	-1364.1287	262.27112	789.99731	-1080.4396	250.9834	799.1749	-1342.6183	424.9358	856.2502	-1169.4814	423.6195	851.5507	-1243.2249	219.33203	540.52161	-937.53961	169.80566	405.51257	-917.52246	245.72423	207.83853	-930.49738	299.79791	63.398579	-973.78491	320.06357	51.824966	-1035.3276	159.85295	38.521496	-942.47546	286.6022	682.56653	-1422.7635	175.16618	398.44583	-1485.8785	201.73645	314.62897	-1490.8856	294.34061	71.959167	-1432.08	317.21799	50.024963	-1364.5961	162.69958	40.316509	-1469.1532	
438	2.185	310.12689	1232.6604	-1216.9668	168.69714	1151.5927	-1207.5153	331.45386	1152.8857	-1364.0851	261.13132	793.61798	-1080.5825	249.8582	802.6551	-1342.5416	423.7904	859.851	-1169.542	422.403	855.0533	-1243.1179	219.79422	541.71979	-938.65289	171.5354	406.3674	-919.1123	246.60223	208.23398	-931.09119	299.90167	63.384438	-973.72168	320.16199	51.753174	-1035.2034	159.84138	38.514885	-942.47058	285.93472	684.85651	-1422.5089	177.18452	399.40189	-1484.7144	203.55495	315.39752	-1489.9425	294.49792	71.954994	-1432.0406	317.29745	49.965752	-1364.6627	162.686	40.276028	-1469.1454	
439	2.19	310.14249	1236.3391	-1216.877	168.57922	1155.3934	-1207.4324	331.37067	1156.4993	-1364.0203	259.93304	797.25452	-1080.5861	248.6963	806.129	-1342.5023	422.6841	863.4097	-1169.4497	420.8838	858.7694	-1242.4956	220.20288	542.68188	-939.93805	173.33319	407.16849	-920.67682	247.50928	208.6274	-931.7384	300.00314	63.377811	-973.66583	320.23868	51.750706	-1035.0912	159.83664	38.509354	-942.44373	285.24368	687.23236	-1422.2213	179.20081	400.34372	-1483.5667	205.38528	316.15982	-1489.014	294.6265	71.96801	-1432.0247	317.38535	49.927544	-1364.6583	162.65826	40.330429	-1469.1753	
440	2.195	310.11603	1239.8593	-1216.7588	168.39203	1159.0609	-1207.0388	331.26389	1160.0668	-1363.8566	258.75696	800.85156	-1080.5336	247.542	809.5618	-1342.4409	421.5379	866.8707	-1169.2039	420.1996	862.0683	-1243.0931	220.70003	543.94348	-940.9425	175.03015	407.98538	-922.33008	248.36375	209.11107	-932.29572	300.05853	63.35994	-973.56195	320.3429	51.750603	-1035.0073	159.80864	38.520424	-942.41998	284.58109	689.48993	-1421.8882	181.24821	401.33658	-1482.3972	207.1945	316.95444	-1488.0129	294.82367	71.988174	-1432.0155	317.45331	49.910271	-1364.6649	162.62711	40.372135	-1469.1797	
441	2.2	310.13773	1243.3748	-1216.7074	168.81023	1162.6051	-1207.8104	331.25504	1163.6252	-1363.8859	257.57626	804.33868	-1080.6235	246.3633	812.9067	-1342.4088	420.3901	870.3954	-1169.2677	419.0707	865.332	-1243.1443	221.19853	545.21722	-942.00067	176.77966	408.76312	-923.8692	249.27184	209.47913	-932.94543	300.12466	63.335991	-973.52716	320.42157	51.698311	-1034.9438	159.81062	38.537796	-942.43518	283.9855	691.44226	-1421.3796	183.31322	402.29489	-1481.2146	209.05891	317.70911	-1486.9827	295.00821	71.429726	-1431.6687	317.3287	49.983681	-1364.3866	162.61975	40.439026	-1469.2272	
442	2.205	310.2038	1246.8314	-1216.7576	168.73434	1166.2083	-1207.8087	331.21945	1167.0818	-1363.8391	256.33176	807.8313	-1080.4886	245.2634	816.0868	-1342.2842	419.2195	873.7327	-1169.3275	417.9732	868.8076	-1243.1199	221.70001	546.47455	-942.97961	178.51801	409.62915	-925.49463	250.168	209.9476	-933.58624	300.26965	63.346783	-973.51746	320.54691	51.617146	-1034.9021	159.81142	38.552773	-942.47144	283.3732	693.65405	-1421.0675	185.4505	403.15964	-1480.0082	210.98891	318.39972	-1485.9777	295.23077	71.409706	-1431.687	317.39999	49.974991	-1364.3623	162.61491	40.403484	-1469.2712	
443	2.21	310.24112	1250.1581	-1216.7823	168.63022	1169.6699	-1207.8641	331.06943	1170.373	-1363.7172	255.17726	811.15338	-1080.5646	244.0729	819.2575	-1342.2653	418.1143	877.0334	-1169.4359	416.6763	872.2782	-1242.9075	222.11472	547.69977	-944.03076	180.27014	410.44788	-927.11292	251.05692	210.41254	-934.28607	300.66306	63.557072	-973.41217	320.65674	51.48484	-1034.8541	159.82393	38.519272	-942.50153	282.7739	695.66888	-1420.7916	187.56921	403.96652	-1478.797	212.96188	319.00467	-1484.9705	295.41025	71.866577	-1432.0068	317.7543	49.832256	-1364.9565	162.62843	40.332722	-1469.2906	
444	2.215	310.2388	1253.4714	-1216.7537	168.53062	1173.1086	-1207.792	331.07959	1173.6853	-1363.8153	253.89394	814.47699	-1080.4453	242.9614	822.352	-1342.1912	416.9266	880.4039	-1169.3951	415.5926	875.54	-1242.9315	222.66782	548.93872	-945.10242	182.06883	411.22989	-928.78021	251.94356	210.72661	-934.98199	300.04694	62.607468	-973.35736	320.7735	51.382435	-1034.7214	159.86076	38.491837	-942.55994	282.16269	697.97827	-1420.7631	189.72012	404.8793	-1477.4995	214.83401	319.71121	-1483.9585	295.57281	71.911461	-1432.0348	317.8425	49.803234	-1364.9933	162.63716	40.324047	-1469.2848	
